<svg width="75" height="137" viewBox="0 0 75 137" fill="none" xmlns="http://www.w3.org/2000/svg">
<path d="M72.407 112.472H3.04297" stroke="white" stroke-width="4.40998" stroke-miterlimit="10" stroke-linecap="round"/>
<path d="M29.1732 123.32H48.518" stroke="white" stroke-width="4.40998" stroke-miterlimit="10" stroke-linecap="round" stroke-linejoin="round"/>
<path d="M37.7088 2.62152V81.7362" stroke="white" stroke-width="4.40998" stroke-miterlimit="10" stroke-linecap="round" stroke-linejoin="round"/>
<path d="M57.3853 63.0961L37.7098 81.7365L18.0342 63.0961" stroke="white" stroke-width="4.40998" stroke-miterlimit="10" stroke-linecap="round" stroke-linejoin="round"/>
<path d="M28.818 19.6965H17.532C9.49194 19.6965 3 25.8625 3 33.4989V42.2262H28.818" stroke="white" stroke-width="4.40998" stroke-miterlimit="10" stroke-linecap="round" stroke-linejoin="round"/>
<path d="M28.8179 42.1787H3V112.898V120.819C3 128.455 9.49194 134.621 17.532 134.621H57.8819C65.9219 134.621 72.4138 128.455 72.4138 120.819V42.1787H37.7069" stroke="white" stroke-width="4.40998" stroke-miterlimit="10" stroke-linecap="round" stroke-linejoin="round"/>
<path d="M57.8835 19.6965H37.7085V42.1787H72.4154V33.4514C72.4154 25.8625 65.9235 19.6965 57.8835 19.6965Z" stroke="white" stroke-width="4.40998" stroke-miterlimit="10" stroke-linecap="round" stroke-linejoin="round"/>
</svg>
